<svg width="546" height="136" viewBox="0 0 546 136" fill="none" xmlns="http://www.w3.org/2000/svg">
<path d="M137.16 106.24H158.88V115H126.24V39.88H158.04V48.64H137.16V71.8H154.44V80.56H137.16V106.24ZM167.613 39.88H193.773C201.213 39.88 204.933 43.4 204.933 50.44V104.44C204.933 111.48 201.213 115 193.773 115H167.613V39.88ZM194.013 103V51.88C194.013 50.44 193.773 49.52 193.293 49.12C192.813 48.64 191.853 48.4 190.413 48.4H178.533V106.48H190.413C191.853 106.48 192.813 106.28 193.293 105.88C193.773 105.4 194.013 104.44 194.013 103ZM217.786 39.88H228.586V115H217.786V39.88ZM268.781 39.88H278.741V115H267.821L251.981 60.76V115H242.021V39.88H253.421L268.781 92.56V39.88ZM312.84 102.76V84.4C312.84 82.96 312.6 82.04 312.12 81.64C311.72 81.16 310.8 80.92 309.36 80.92H300.48C293.2 80.92 289.56 77.36 289.56 70.24V50.44C289.56 43.4 293.28 39.88 300.72 39.88H312.48C319.92 39.88 323.64 43.4 323.64 50.44V61.48H312.72V52.12C312.72 50.68 312.48 49.76 312 49.36C311.52 48.88 310.56 48.64 309.12 48.64H304.08C302.64 48.64 301.68 48.88 301.2 49.36C300.72 49.76 300.48 50.68 300.48 52.12V68.8C300.48 70.24 300.72 71.2 301.2 71.68C301.68 72.08 302.64 72.28 304.08 72.28H312.84C320.2 72.28 323.88 75.8 323.88 82.84V104.44C323.88 111.48 320.12 115 312.6 115H300.96C293.52 115 289.8 111.48 289.8 104.44V93.4H300.72V102.76C300.72 104.2 300.96 105.16 301.44 105.64C301.92 106.04 302.88 106.24 304.32 106.24H309.36C310.8 106.24 311.72 106.04 312.12 105.64C312.6 105.16 312.84 104.2 312.84 102.76ZM345.279 39.88H358.599C366.039 39.88 369.759 43.4 369.759 50.44V104.44C369.759 111.48 366.039 115 358.599 115H345.279C337.759 115 333.999 111.48 333.999 104.44V50.44C333.999 43.4 337.759 39.88 345.279 39.88ZM358.959 102.76V52.12C358.959 50.68 358.719 49.76 358.239 49.36C357.759 48.88 356.799 48.64 355.359 48.64H348.399C346.959 48.64 345.999 48.88 345.519 49.36C345.119 49.76 344.919 50.68 344.919 52.12V102.76C344.919 104.2 345.119 105.16 345.519 105.64C345.999 106.04 346.959 106.24 348.399 106.24H355.359C356.799 106.24 357.759 106.04 358.239 105.64C358.719 105.16 358.959 104.2 358.959 102.76ZM408.469 39.88H418.429V115H407.509L391.669 60.76V115H381.709V39.88H393.109L408.469 92.56V39.88ZM465.488 63.4H454.448V51.88C454.448 50.44 454.208 49.52 453.728 49.12C453.328 48.64 452.408 48.4 450.968 48.4H444.848C443.408 48.4 442.448 48.64 441.968 49.12C441.488 49.52 441.248 50.44 441.248 51.88V103.12C441.248 104.56 441.488 105.52 441.968 106C442.448 106.4 443.408 106.6 444.848 106.6H450.968C452.408 106.6 453.328 106.4 453.728 106C454.208 105.52 454.448 104.56 454.448 103.12V91.72H465.488V104.44C465.488 111.56 461.728 115.12 454.208 115.12H441.488C434.048 115.12 430.328 111.56 430.328 104.44V50.44C430.328 43.4 434.048 39.88 441.488 39.88H454.208C461.728 39.88 465.488 43.4 465.488 50.44V63.4ZM497.762 102.76V84.4C497.762 82.96 497.522 82.04 497.042 81.64C496.642 81.16 495.722 80.92 494.282 80.92H485.402C478.122 80.92 474.482 77.36 474.482 70.24V50.44C474.482 43.4 478.202 39.88 485.642 39.88H497.402C504.842 39.88 508.562 43.4 508.562 50.44V61.48H497.642V52.12C497.642 50.68 497.402 49.76 496.922 49.36C496.442 48.88 495.482 48.64 494.042 48.64H489.002C487.562 48.64 486.602 48.88 486.122 49.36C485.642 49.76 485.402 50.68 485.402 52.12V68.8C485.402 70.24 485.642 71.2 486.122 71.68C486.602 72.08 487.562 72.28 489.002 72.28H497.762C505.122 72.28 508.802 75.8 508.802 82.84V104.44C508.802 111.48 505.042 115 497.522 115H485.882C478.442 115 474.722 111.48 474.722 104.44V93.4H485.642V102.76C485.642 104.2 485.882 105.16 486.362 105.64C486.842 106.04 487.802 106.24 489.242 106.24H494.282C495.722 106.24 496.642 106.04 497.042 105.64C497.522 105.16 497.762 104.2 497.762 102.76Z" fill="url(#paint0_linear)"/>
<path d="M41.2334 78.4237L79.7133 56.2167L41.2334 34L2.7527 56.2167L41.2334 78.4237Z" fill="#A55EFF"/>
<path d="M38.4805 83.1919L0 60.9851V105.417L38.4805 127.634V83.1919Z" fill="#A55EFF"/>
<path d="M43.9864 83.1919V127.634L82.466 105.417V60.9851L43.9864 83.1919Z" fill="#A55EFF"/>
<defs>
<linearGradient id="paint0_linear" x1="333" y1="0" x2="333" y2="136" gradientUnits="userSpaceOnUse">
<stop stop-color="#A25CFF"/>
<stop offset="1" stop-color="#A65FFF"/>
</linearGradient>
</defs>
</svg>
